<?xml version="1.0" encoding="UTF-8"?>
<svg id="OBJECTS" xmlns="http://www.w3.org/2000/svg" viewBox="0 0 41.78 50.59">
  <defs>
    <style>
      .cls-1 {
        fill: #606060;
      }

      .cls-2 {
        fill: #cb5344;
      }

      .cls-3 {
        opacity: .1;
      }
    </style>
  </defs>
  <g class="cls-3">
    <path class="cls-1" d="M20.89,45.85c-2.01,0-3.63-1.63-3.63-3.63V5.63c0-2.01,1.63-3.63,3.63-3.63s3.63,1.63,3.63,3.63v36.58c0,2.01-1.63,3.63-3.63,3.63Z"/>
    <path class="cls-1" d="M20.93,50.59c-1.13,0-2.19-.52-2.88-1.38L1.06,32.23c-1.42-1.42-1.42-3.72,0-5.14,1.42-1.42,3.72-1.42,5.14,0l14.68,14.68,14.68-14.68c1.42-1.42,3.72-1.42,5.14,0,1.42,1.42,1.42,3.72,0,5.14l-16.8,16.8c-.67.96-1.78,1.55-2.98,1.55Z"/>
  </g>
  <g>
    <path class="cls-2" d="M20.89,43.85c-2.01,0-3.63-1.63-3.63-3.63V3.63c0-2.01,1.63-3.63,3.63-3.63s3.63,1.63,3.63,3.63v36.58c0,2.01-1.63,3.63-3.63,3.63Z"/>
    <path class="cls-2" d="M20.93,48.59c-1.13,0-2.19-.52-2.88-1.38L1.06,30.23c-1.42-1.42-1.42-3.72,0-5.14s3.72-1.42,5.14,0l14.68,14.68,14.68-14.68c1.42-1.42,3.72-1.42,5.14,0,1.42,1.42,1.42,3.72,0,5.14l-16.8,16.8c-.67.96-1.78,1.55-2.98,1.55Z"/>
  </g>
</svg>