<?xml version="1.0" encoding="UTF-8"?>
<svg id="Layer_2" xmlns="http://www.w3.org/2000/svg" viewBox="0 0 544.04 140.62">
  <defs>
    <style>
      .cls-1 {
        fill-rule: evenodd;
      }

      .cls-1, .cls-2 {
        fill: #010101;
      }
    </style>
  </defs>
  <g id="Camada_1">
    <g>
      <g>
        <path class="cls-1" d="M104.21,28.97c-34.84-40.6-88.33,6.78-43.88,49.38-75.24-29.85,9.34-120.17,43.88-49.38h0Z"/>
        <path class="cls-1" d="M111.73,105.18c42.89-32.56-4.36-85.82-49.59-44.02,33.04-72.02,123.58,12.66,49.59,44.02h0Z"/>
        <path class="cls-1" d="M34.47,105.55c32.27,42.52,88.59-1.66,46.87-46.76,73.26,34.16-16.79,119.4-46.87,46.76h0Z"/>
        <path class="cls-1" d="M30.42,29.55c-44.83,30.02-.97,85.91,46.79,46.82C39.8,146.34-45.38,56.54,30.42,29.55h0Z"/>
      </g>
      <g>
        <path class="cls-2" d="M199.8,4.66h14.88l16.49,26.53,16.49-26.53h14.88v62.74h-13.71V26.44l-17.66,26.8h-.36l-17.48-26.53v40.69h-13.53V4.66Z"/>
        <path class="cls-2" d="M273.83,43.65v-.18c0-13.8,11.11-25.01,26.08-25.01s25.9,11.02,25.9,24.83v.18c0,13.8-11.11,25.01-26.08,25.01s-25.9-11.02-25.9-24.83ZM293.37,0h12.91l11.02,14.07h-10.49l-7.08-5.92-7.08,5.92h-10.31l11.02-14.07ZM312.37,43.65v-.18c0-7.08-5.11-13.26-12.64-13.26s-12.46,6-12.46,13.09v.18c0,7.08,5.11,13.27,12.64,13.27s12.46-6.01,12.46-13.09Z"/>
        <path class="cls-2" d="M335.67,19.36h13.62v6.81c3.14-4.03,7.17-7.71,14.07-7.71,10.31,0,16.31,6.81,16.31,17.84v31.1h-13.62v-26.8c0-6.45-3.05-9.77-8.25-9.77s-8.51,3.32-8.51,9.77v26.8h-13.62V19.36Z"/>
        <path class="cls-2" d="M388.63,53.6v-.18c0-10.49,7.98-15.33,19.36-15.33,4.84,0,8.34.81,11.74,1.97v-.81c0-5.65-3.5-8.78-10.31-8.78-5.2,0-8.87.99-13.26,2.6l-3.41-10.4c5.29-2.33,10.49-3.85,18.64-3.85,7.44,0,12.82,1.97,16.22,5.38,3.58,3.58,5.2,8.87,5.2,15.33v27.87h-13.18v-5.2c-3.32,3.68-7.89,6.09-14.52,6.09-9.05,0-16.49-5.2-16.49-14.7ZM419.91,50.46v-2.42c-2.33-1.08-5.38-1.79-8.69-1.79-5.83,0-9.41,2.33-9.41,6.63v.18c0,3.67,3.05,5.83,7.44,5.83,6.36,0,10.67-3.5,10.67-8.43Z"/>
        <path class="cls-2" d="M442.23,43.65v-.18c0-13.71,10.49-25.01,25.19-25.01,9.05,0,14.7,3.05,19.18,8.07l-8.34,8.96c-3.05-3.23-6.09-5.29-10.93-5.29-6.81,0-11.65,6-11.65,13.09v.18c0,7.35,4.75,13.27,12.19,13.27,4.57,0,7.71-1.97,11.02-5.11l7.98,8.07c-4.66,5.11-10.04,8.78-19.63,8.78-14.43,0-25.01-11.11-25.01-24.83Z"/>
        <path class="cls-2" d="M492.06,43.65v-.18c0-13.8,11.11-25.01,26.08-25.01s25.9,11.02,25.9,24.83v.18c0,13.8-11.11,25.01-26.08,25.01s-25.9-11.02-25.9-24.83ZM530.6,43.65v-.18c0-7.08-5.11-13.26-12.64-13.26s-12.46,6-12.46,13.09v.18c0,7.08,5.11,13.27,12.64,13.27s12.46-6.01,12.46-13.09Z"/>
        <g>
          <path class="cls-2" d="M199.75,88.62h9.19v33.36h20.79v8.34h-29.97v-41.7Z"/>
          <path class="cls-2" d="M250.72,131.04c-9.9,0-17.21-7.33-17.21-16.5v-.13c0-9.16,7.36-16.6,17.32-16.6s17.21,7.31,17.21,16.5v.11c0,9.19-7.36,16.63-17.32,16.63ZM250.72,105.59c-5.19,0-8.29,4-8.29,8.71v.11c0,4.71,3.39,8.82,8.39,8.82s8.29-3.97,8.29-8.68v-.13c0-4.69-3.39-8.82-8.39-8.82Z"/>
          <path class="cls-2" d="M289.65,131.04c-9.59,0-16.63-7.39-16.63-16.5v-.13c0-9.11,6.99-16.6,16.76-16.6,6.01,0,9.77,2.01,12.74,5.35l-5.53,5.96c-2.04-2.14-4.05-3.52-7.28-3.52-4.5,0-7.73,4-7.73,8.71v.11c0,4.9,3.15,8.82,8.1,8.82,3.04,0,5.14-1.3,7.33-3.39l5.3,5.35c-3.1,3.42-6.67,5.85-13.05,5.85Z"/>
          <path class="cls-2" d="M327.3,126.88c-2.22,2.44-5.24,4.02-9.66,4.02-6.01,0-10.96-3.44-10.96-9.74v-.13c0-6.96,5.3-10.19,12.87-10.19,3.2,0,5.53.53,7.81,1.32v-.53c0-3.76-2.33-5.85-6.86-5.85-3.47,0-5.9.66-8.82,1.72l-2.28-6.91c3.52-1.54,6.99-2.57,12.39-2.57,9.9,0,14.25,5.14,14.25,13.77v18.53h-8.74v-3.44ZM321.68,116.26c-3.87,0-6.25,1.56-6.25,4.42v.11c0,2.44,2.01,3.87,4.92,3.87,4.24,0,7.1-2.33,7.1-5.59v-1.62c-1.54-.71-3.57-1.19-5.77-1.19Z"/>
          <path class="cls-2" d="M342.28,114.49c0-9.19,6.96-16.68,16.73-16.68,6.01,0,9.77,2.01,12.74,5.35l-5.53,5.96c-2.01-2.14-4.05-3.52-7.26-3.52-4.55,0-7.76,4-7.76,8.76s3.15,8.87,8.1,8.87c3.04,0,5.11-1.3,7.33-3.39l5.3,5.35c-2.86,3.12-6.09,5.43-11.54,5.8l-3.89,9.64-7.55-3.15,4.87-7.15c-6.91-2.09-11.54-8.34-11.54-15.83Z"/>
          <path class="cls-2" d="M396.51,126.88c-2.2,2.44-5.24,4.02-9.64,4.02-6.01,0-10.96-3.44-10.96-9.74v-.13c0-6.96,5.3-10.19,12.87-10.19,3.23,0,5.53.53,7.81,1.32v-.53c0-3.76-2.33-5.85-6.86-5.85-3.44,0-5.9.66-8.82,1.72l-2.25-6.91c3.5-1.54,6.96-2.57,12.39-2.57,9.88,0,14.22,5.14,14.22,13.77v18.53h-8.76v-3.44ZM396.3,94.87c-3.71,0-6.8-2.3-8.95-2.3-1.85,0-2.57,1.01-3.39,2.91l-4.82-1.48c1.35-5.03,3.2-8.23,7.36-8.23,3.71,0,6.8,2.33,8.95,2.33,1.85,0,2.57-1.03,3.39-2.94l4.82,1.51c-1.35,5-3.2,8.21-7.36,8.21ZM390.93,116.26c-3.87,0-6.25,1.56-6.25,4.42v.11c0,2.44,2.01,3.87,4.95,3.87,4.21,0,7.07-2.33,7.07-5.59v-1.62c-1.54-.71-3.57-1.19-5.77-1.19Z"/>
          <path class="cls-2" d="M428.74,131.04c-9.9,0-17.24-7.33-17.24-16.5v-.13c0-9.16,7.41-16.6,17.34-16.6s17.24,7.31,17.24,16.5v.11c0,9.19-7.41,16.63-17.34,16.63ZM428.74,105.59c-5.19,0-8.29,4-8.29,8.71v.11c0,4.71,3.39,8.82,8.39,8.82s8.29-3.97,8.29-8.68v-.13c0-4.69-3.39-8.82-8.39-8.82Z"/>
        </g>
      </g>
    </g>
  </g>
</svg>